{
	"asset":{
		"generator":"Khronos glTF Blender I/O v4.4.56",
		"version":"2.0"
	},
	"extensionsUsed":[
		"KHR_materials_specular",
		"KHR_materials_ior"
	],
	"scene":0,
	"scenes":[
		{
			"name":"Scene",
			"nodes":[
				0
			]
		}
	],
	"nodes":[
		{
			"mesh":0,
			"name":"Shovel 1"
		}
	],
	"materials":[
		{
			"doubleSided":true,
			"extensions":{
				"KHR_materials_specular":{
					"specularColorFactor":[
						1.4938271045684814,
						1.4938271045684814,
						1.4938271045684814
					]
				},
				"KHR_materials_ior":{
					"ior":1.4500000476837158
				}
			},
			"name":"Shovel_Main2",
			"pbrMetallicRoughness":{
				"baseColorFactor":[
					0.5596006512641907,
					0.1342889964580536,
					0.04766790196299553,
					1
				],
				"roughnessFactor":0.9382715821266174
			}
		},
		{
			"doubleSided":true,
			"extensions":{
				"KHR_materials_specular":{
					"specularColorFactor":[
						2.0,
						2.0,
						2.0
					]
				},
				"KHR_materials_ior":{
					"ior":1.4500000476837158
				}
			},
			"name":"Shovel_Secondary2",
			"pbrMetallicRoughness":{
				"baseColorFactor":[
					0.548852264881134,
					0.1809728741645813,
					0.13545238971710205,
					1
				],
				"metallicFactor":0,
				"roughnessFactor":0
			}
		}
	],
	"meshes":[
		{
			"name":"Cube.001",
			"primitives":[
				{
					"attributes":{
						"POSITION":0,
						"NORMAL":1,
						"TEXCOORD_0":2
					},
					"indices":3,
					"material":0
				},
				{
					"attributes":{
						"POSITION":4,
						"NORMAL":5,
						"TEXCOORD_0":6
					},
					"indices":7,
					"material":1
				}
			]
		}
	],
	"accessors":[
		{
			"bufferView":0,
			"componentType":5126,
			"count":1063,
			"max":[
				-1.356980800628662,
				5.267910003662109,
				1.167449951171875
			],
			"min":[
				-3.235790252685547,
				-1.4213790893554688,
				-0.08404672145843506
			],
			"type":"VEC3"
		},
		{
			"bufferView":1,
			"componentType":5126,
			"count":1063,
			"type":"VEC3"
		},
		{
			"bufferView":2,
			"componentType":5126,
			"count":1063,
			"type":"VEC2"
		},
		{
			"bufferView":3,
			"componentType":5123,
			"count":2262,
			"type":"SCALAR"
		},
		{
			"bufferView":4,
			"componentType":5126,
			"count":313,
			"max":[
				-1.9860613346099854,
				3.7353217601776123,
				0.7263601422309875
			],
			"min":[
				-2.6067097187042236,
				1.7705326080322266,
				0.014635592699050903
			],
			"type":"VEC3"
		},
		{
			"bufferView":5,
			"componentType":5126,
			"count":313,
			"type":"VEC3"
		},
		{
			"bufferView":6,
			"componentType":5126,
			"count":313,
			"type":"VEC2"
		},
		{
			"bufferView":7,
			"componentType":5123,
			"count":768,
			"type":"SCALAR"
		}
	],
	"bufferViews":[
		{
			"buffer":0,
			"byteLength":12756,
			"byteOffset":0,
			"target":34962
		},
		{
			"buffer":0,
			"byteLength":12756,
			"byteOffset":12756,
			"target":34962
		},
		{
			"buffer":0,
			"byteLength":8504,
			"byteOffset":25512,
			"target":34962
		},
		{
			"buffer":0,
			"byteLength":4524,
			"byteOffset":34016,
			"target":34963
		},
		{
			"buffer":0,
			"byteLength":3756,
			"byteOffset":38540,
			"target":34962
		},
		{
			"buffer":0,
			"byteLength":3756,
			"byteOffset":42296,
			"target":34962
		},
		{
			"buffer":0,
			"byteLength":2504,
			"byteOffset":46052,
			"target":34962
		},
		{
			"buffer":0,
			"byteLength":1536,
			"byteOffset":48556,
			"target":34963
		}
	],
	"buffers":[
		{
			"byteLength":50092,
			"uri":"shovel.bin"
		}
	]
}
